# Blender v2.82 (sub 7) OBJ File: ''
# www.blender.org
mtllib cube.mtl
o Cube_Cube.002
v 10.000000 -10.000002 -9.999998
v 10.000000 9.999998 -10.000002
v 10.000000 10.000002 9.999998
v 10.000000 -9.999998 10.000002
v -10.000000 10.000002 9.999998
v -10.000000 -9.999998 10.000002
v -10.000000 9.999998 -10.000002
v -10.000000 -10.000002 -9.999998
vt 0.373269 -0.001418
vt 0.626731 -0.001418
vt 0.626731 0.249291
vt 0.373269 0.249291
vt 0.626731 0.500000
vt 0.373269 0.500000
vt 0.626731 0.750709
vt 0.373269 0.750709
vt 0.626731 1.001418
vt 0.373269 1.001418
vt 0.119808 0.500000
vt 0.119808 0.750709
vt 0.880192 0.500000
vt 0.880192 0.750709
vn 1.0000 -0.0000 0.0000
vn 0.0000 0.0000 1.0000
vn -1.0000 0.0000 0.0000
vn 0.0000 -0.0000 -1.0000
vn 0.0000 -1.0000 0.0000
vn 0.0000 1.0000 -0.0000
usemtl Material
s 1
f 1/1/1 2/2/1 3/3/1 4/4/1
f 4/4/2 3/3/2 5/5/2 6/6/2
f 6/6/3 5/5/3 7/7/3 8/8/3
f 8/8/4 7/7/4 2/9/4 1/10/4
f 4/11/5 6/6/5 8/8/5 1/12/5
f 5/5/6 3/13/6 2/14/6 7/7/6
